<?xml version="1.0" encoding="utf-8"?>
<!-- Generator: Adobe Illustrator 16.0.4, SVG Export Plug-In . SVG Version: 6.00 Build 0)  -->
<!DOCTYPE svg PUBLIC "-//W3C//DTD SVG 1.1//EN" "http://www.w3.org/Graphics/SVG/1.1/DTD/svg11.dtd">
<svg version="1.1" id="Layer_1" xmlns="http://www.w3.org/2000/svg" xmlns:xlink="http://www.w3.org/1999/xlink" x="0px" y="0px"
	 width="233px" height="51px" viewBox="0 0 233 51" enable-background="new 0 0 233 51" xml:space="preserve">
<g>
	<path d="M0,44.606c1.115,0.476,2.459,0.713,4.032,0.713c1.229,0,2.205-0.303,2.927-0.909c0.721-0.608,1.081-1.426,1.081-2.459
		V6.688h7.057v35.263c0,2.769-1,4.97-3,6.602C10.098,50.183,7.41,51,4.032,51C2.59,51,1.246,50.787,0,50.36V44.606z"/>
	<path d="M20.138,25.192c0-3.741,1.08-6.752,3.237-9.034c2.158-2.281,5.108-3.421,8.85-3.421c3.766,0,6.722,1.14,8.867,3.421
		c2.145,2.282,3.218,5.292,3.218,9.034c0,3.717-1.073,6.71-3.218,8.979c-2.145,2.269-5.101,3.402-8.867,3.402
		c-3.742,0-6.691-1.137-8.85-3.414C21.218,31.882,20.138,28.894,20.138,25.192z M27.197,25.192c0,2.168,0.437,3.827,1.312,4.977
		c0.875,1.149,2.114,1.725,3.717,1.725c1.619,0,2.861-0.571,3.728-1.712c0.867-1.142,1.3-2.805,1.3-4.989
		c0-2.201-0.434-3.879-1.3-5.038c-0.867-1.157-2.109-1.738-3.728-1.738c-1.603,0-2.842,0.581-3.717,1.738
		C27.633,21.313,27.197,22.991,27.197,25.192z"/>
	<path d="M47.679,20.765c0-1.028,0.229-2.015,0.685-2.961c0.457-0.946,1.109-1.799,1.957-2.558c0.847-0.759,1.957-1.366,3.327-1.823
		c1.369-0.457,2.885-0.685,4.549-0.685c2.524,0,5.296,0.417,8.316,1.254v5.681c-3.037-0.836-5.808-1.255-8.316-1.255
		c-2.536,0-3.804,0.605-3.804,1.814c0,0.525,0.231,0.945,0.691,1.257c0.461,0.314,1.161,0.47,2.099,0.47
		c3.119,0,5.503,0.629,7.153,1.885c1.65,1.256,2.475,3.148,2.475,5.677c0,1.032-0.228,2.022-0.681,2.972
		c-0.454,0.949-1.114,1.804-1.979,2.565c-0.866,0.761-1.988,1.372-3.366,1.83c-1.377,0.457-2.916,0.687-4.614,0.687
		c-2.408,0-5.125-0.417-8.151-1.255v-5.68c2.994,0.836,5.71,1.255,8.151,1.255c2.52,0,3.78-0.625,3.78-1.876
		c0-1.111-0.922-1.666-2.767-1.666c-3.062,0-5.412-0.63-7.048-1.89C48.497,25.201,47.679,23.303,47.679,20.765z"/>
	<path d="M71.876,36.91V0h6.713v13.402c1.54-0.444,2.876-0.665,4.007-0.665c3.213,0,5.807,0.823,7.783,2.471
		c1.975,1.647,2.963,3.848,2.963,6.602V36.91h-6.713V21.811c0-1.033-0.365-1.856-1.094-2.471c-0.729-0.615-1.709-0.923-2.939-0.923
		c-1.328,0-2.664,0.173-4.007,0.518V36.91H71.876z"/>
	<path d="M110.433,36.91l12.024-30.221h7.253l12.05,30.221h-7.672l-2.409-6.689H120.49l-2.41,6.689H110.433z M122.605,24.172h6.958
		l-3.467-9.763L122.605,24.172z"/>
	<path d="M143.752,30.86V0h6.712v30.195c0,0.623,0.127,1.062,0.382,1.317c0.253,0.253,0.676,0.381,1.265,0.381
		c0.688,0,1.476-0.164,2.36-0.492v5.51c-1.359,0.441-2.696,0.662-4.008,0.662c-2.163,0-3.822-0.553-4.979-1.66
		S143.752,33.123,143.752,30.86z"/>
	<path d="M157.843,30.86V0h6.713v30.195c0,0.623,0.126,1.062,0.381,1.317c0.253,0.253,0.677,0.381,1.266,0.381
		c0.689,0,1.476-0.164,2.362-0.492v5.51c-1.361,0.441-2.698,0.662-4.008,0.662c-2.164,0-3.825-0.553-4.98-1.66
		C158.419,34.807,157.843,33.123,157.843,30.86z"/>
	<path d="M171.588,5.042c0-1.033,0.356-1.914,1.069-2.644c0.713-0.729,1.578-1.094,2.595-1.094c1.032,0,1.914,0.365,2.644,1.094
		c0.728,0.73,1.093,1.611,1.093,2.644c0,1.016-0.365,1.88-1.093,2.594c-0.73,0.713-1.612,1.07-2.644,1.07
		c-1.017,0-1.881-0.356-2.595-1.07C171.944,6.922,171.588,6.057,171.588,5.042z M171.932,36.91V13.402h6.712V36.91H171.932z"/>
	<path d="M185.358,36.91V14.238c3.802-1,7.376-1.5,10.721-1.5c3.213,0,5.808,0.823,7.783,2.471c1.975,1.647,2.963,3.848,2.963,6.602
		V36.91h-6.712V21.811c0-1.033-0.366-1.856-1.094-2.471c-0.729-0.615-1.709-0.923-2.939-0.923c-1.328,0-2.663,0.173-4.008,0.518
		V36.91H185.358z"/>
	<path d="M211.497,41.951c0-2.214,0.658-4.087,1.974-5.62c1.317-1.533,3.12-2.569,5.408-3.11c-0.429-0.295-0.645-0.747-0.645-1.353
		c0-0.606,0.215-1.058,0.645-1.353c-2.289-0.541-4.091-1.573-5.408-3.099c-1.316-1.523-1.974-3.393-1.974-5.606
		c0-2.754,0.992-4.955,2.978-6.602c1.984-1.648,4.583-2.471,7.798-2.471c3.351,0,6.93,0.5,10.741,1.5v7.573
		c0,2.05-0.58,3.82-1.74,5.312c-1.161,1.491-2.736,2.541-4.726,3.147c-1.065,0.344-1.599,0.877-1.599,1.598
		c0,0.737,0.534,1.279,1.599,1.623c2.023,0.64,3.607,1.692,4.75,3.16c1.143,1.467,1.715,3.233,1.715,5.299
		c0,2.753-0.987,4.949-2.962,6.589c-1.974,1.638-4.572,2.459-7.793,2.459s-5.82-0.821-7.797-2.459
		C212.485,46.9,211.497,44.705,211.497,41.951z M219.312,19.34c-0.735,0.615-1.102,1.438-1.102,2.471s0.367,1.853,1.102,2.458
		c0.734,0.608,1.721,0.911,2.96,0.911c1.239,0,2.22-0.303,2.943-0.911c0.723-0.606,1.085-1.425,1.085-2.458v-2.876
		c-1.342-0.345-2.685-0.518-4.028-0.518C221.033,18.417,220.046,18.725,219.312,19.34z M219.312,39.492
		c-0.735,0.605-1.102,1.426-1.102,2.459c0,1.033,0.367,1.851,1.102,2.459c0.734,0.606,1.721,0.909,2.96,0.909
		c1.239,0,2.22-0.303,2.943-0.909c0.723-0.608,1.085-1.426,1.085-2.459c0-1.033-0.362-1.854-1.085-2.459
		c-0.724-0.607-1.704-0.911-2.943-0.911C221.033,38.581,220.046,38.885,219.312,39.492z"/>
</g>
</svg>
